<svg width="34" height="32" viewBox="0 0 34 32" fill="none" xmlns="http://www.w3.org/2000/svg">
<path d="M18.1268 14.6286C18.1268 15.5429 17.4113 16.2584 16.497 16.2584C15.5827 16.2584 14.8672 15.5032 14.8672 14.6286C14.8672 13.7143 15.6225 12.9988 16.497 12.9988C17.4113 12.9591 18.1268 13.7143 18.1268 14.6286Z" fill="#212121"/>
<path d="M30.1317 14.6286C30.1317 15.5429 29.3764 16.2584 28.5019 16.2584C27.5876 16.2584 26.8721 15.5032 26.8721 14.6286C26.8721 13.7143 27.5876 12.9988 28.5019 12.9988C29.3764 12.9591 30.1317 13.7143 30.1317 14.6286Z" fill="#212121"/>
<path d="M17.4509 0C12.0447 0 6.99628 2.82236 4.17392 7.39379H2.58385C1.1528 7.39379 0 8.54658 0 9.97764C0 11.4087 1.1528 12.5615 2.58385 12.5615V11.1304C1.94783 11.1304 1.43106 10.6137 1.43106 9.97764C1.43106 9.34162 1.94783 8.82485 2.58385 8.82485H4.96895L5.1677 8.46708C7.67205 4.09441 12.3627 1.3913 17.3714 1.3913C25.1627 1.3913 31.4832 7.7118 31.4832 15.5031V21.9826C31.4832 24.1292 29.7342 25.918 27.5478 25.918C25.6398 25.918 24.0895 24.5665 23.6919 22.7776C25.3615 22.2211 26.5938 20.0745 26.5938 19.2C26.5938 18.1665 24.9242 17.3317 22.8969 17.3317C20.8696 17.3317 19.2 18.1665 19.2 19.2C19.2 20.0745 20.4323 22.2211 22.1019 22.7776C21.7441 24.5665 20.154 25.918 18.246 25.918C16.0994 25.918 14.3106 24.1689 14.3106 21.9826C14.3106 18.5242 11.4882 15.7019 8.02982 15.7019C5.60497 15.7416 3.41864 17.2919 2.42485 19.4783C2.06708 18.2062 1.90808 16.8944 1.90808 15.5429H0.477019C0.477019 24.6062 7.87081 32 16.9342 32V30.5689C10.9317 30.5689 5.72423 27.0311 3.29938 21.9031C3.37888 19.2795 5.52547 17.1727 8.14907 17.1727C10.8124 17.1727 12.9988 19.359 12.9988 22.0224C12.9988 24.964 15.3839 27.3888 18.3652 27.3888C20.3528 27.3888 22.0621 26.3155 23.0162 24.6857C23.9304 26.2758 25.6795 27.3888 27.6671 27.3888C30.6087 27.3888 33.0336 25.0037 33.0336 22.0224V15.5429C32.9541 6.95652 25.9975 0 17.4509 0ZM20.7503 19.359C21.0286 19.1602 21.7839 18.8025 22.9764 18.8025C24.169 18.8025 24.964 19.1602 25.2025 19.359C25.0037 20.0348 23.9702 21.5056 22.9764 21.5056C21.9826 21.5056 20.9491 20.0348 20.7503 19.359Z" fill="#212121"/>
</svg>
